<?xml version="1.0" encoding="utf-8"?>
<!-- Generator: Adobe Illustrator 28.0.0, SVG Export Plug-In . SVG Version: 6.00 Build 0)  -->
<svg version="1.1" id="Layer_1" xmlns="http://www.w3.org/2000/svg" xmlns:xlink="http://www.w3.org/1999/xlink" x="0px" y="0px"
	 viewBox="0 0 117 36" style="enable-background:new 0 0 117 36;" xml:space="preserve">
<style type="text/css">
	.st0{fill:#01ABE7;}
	.st1{display:none;}
	.st2{display:inline;}
	.st3{fill:#2C2D2C;}
	.st4{display:inline;fill:#01ABE7;}
	.st5{display:inline;fill:#2C2D2C;}
	.st6{font-family:'HPSimplified-Bold';}
	.st7{font-size:22.5696px;}
	.st8{display:inline;fill:#40D5ED;}
	.st9{fill:#FFFFFF;}
</style>
<g>
	<path class="st0" d="M19.28,26.98l6.88-2.86c0.34-0.14,0.46-0.57,0.23-0.87L13.91,6.85c-0.33-0.43-0.77-0.76-1.28-0.94L1.33,1.82
		C0.8,1.63,0.35,2.24,0.69,2.69L18.61,26.8C18.77,27.01,19.04,27.08,19.28,26.98z"/>
	<g>
		<path class="st0" d="M10.9,19.61L0.58,33.07c-0.19,0.24-0.2,0.58-0.02,0.84h0c0.19,0.27,0.53,0.38,0.84,0.26l11.95-4.55
			c0.13-0.05,0.24-0.13,0.32-0.24l2.29-3.06c0.09-0.12,0.09-0.28,0-0.4l-4.69-6.3C11.17,19.49,10.99,19.49,10.9,19.61z"/>
	</g>
	<g>
		<path class="st0" d="M23.27,16.52l2.91-3.91c0.27-0.36,0.14-0.89-0.28-1.07l-6.03-2.73c-0.3-0.14-0.66-0.05-0.86,0.22l-0.61,0.8
			c-0.07,0.09-0.07,0.21,0,0.3L23.27,16.52z"/>
	</g>
</g>
<g class="st1">
	<g class="st2">
		<path class="st3" d="M34.88,9.54c0.52,0,1.04,0.05,1.56,0.14c0.52,0.09,0.93,0.22,1.24,0.37c0.28,0.14,0.46,0.3,0.56,0.49
			c0.09,0.19,0.14,0.43,0.14,0.74v1.71c-0.46-0.03-0.92-0.06-1.38-0.08c-0.45-0.02-0.95-0.03-1.49-0.03c-0.52,0-0.95,0.07-1.28,0.22
			c-0.33,0.15-0.59,0.4-0.79,0.76c-0.19,0.36-0.32,0.86-0.39,1.49c-0.07,0.63-0.1,1.43-0.1,2.4c0,1,0.04,1.83,0.12,2.47
			s0.21,1.16,0.39,1.55c0.19,0.39,0.43,0.66,0.73,0.81c0.3,0.15,0.67,0.23,1.1,0.23c0.51,0,0.97-0.01,1.4-0.05
			c0.42-0.03,0.77-0.05,1.03-0.05c0.55,0,0.83,0.28,0.83,0.83v1.9c-0.52,0.22-1.1,0.39-1.72,0.52c-0.62,0.13-1.41,0.2-2.35,0.2
			c-0.86,0-1.64-0.13-2.33-0.38c-0.69-0.25-1.29-0.7-1.78-1.33s-0.87-1.48-1.13-2.54s-0.39-2.41-0.39-4.04
			c0-1.57,0.11-2.89,0.34-3.95c0.22-1.06,0.58-1.92,1.06-2.57c0.49-0.65,1.11-1.11,1.88-1.39C32.88,9.68,33.8,9.54,34.88,9.54z"/>
		<path class="st3" d="M47.67,25.86c-0.57,0-0.85-0.27-0.85-0.81v-7c0-0.4-0.08-0.7-0.23-0.89c-0.15-0.19-0.44-0.29-0.86-0.29
			c-0.23,0-0.47,0.04-0.72,0.12c-0.25,0.08-0.45,0.19-0.62,0.35v8.53h-3.01c-0.57,0-0.86-0.27-0.86-0.81V9.27h3.01
			c0.57,0,0.86,0.27,0.86,0.81v4.88c0.83-0.91,1.83-1.36,2.98-1.36c2.2,0,3.31,1.36,3.31,4.07v8.21H47.67z"/>
		<path class="st3" d="M56.15,26c-1.11,0-1.96-0.33-2.55-0.99c-0.59-0.66-0.89-1.6-0.89-2.82c0-0.83,0.13-1.5,0.4-2
			s0.63-0.88,1.08-1.13c0.45-0.25,0.96-0.42,1.53-0.5c0.57-0.08,1.16-0.12,1.78-0.12h1.41v-0.69c0-0.49-0.17-0.8-0.51-0.91
			c-0.34-0.12-0.86-0.17-1.57-0.17c-0.63,0-1.2,0.02-1.7,0.05c-0.5,0.03-0.82,0.05-0.96,0.05c-0.29,0-0.5-0.08-0.62-0.23
			c-0.12-0.15-0.19-0.33-0.19-0.53v-1.62c0.43-0.19,1.01-0.36,1.73-0.53c0.72-0.17,1.56-0.25,2.5-0.25c1.8,0,3.1,0.38,3.88,1.13
			c0.79,0.76,1.18,1.83,1.18,3.24v7.91h-2.22c-0.17,0-0.31-0.01-0.43-0.04c-0.12-0.02-0.21-0.07-0.29-0.14
			c-0.08-0.07-0.15-0.17-0.21-0.29c-0.06-0.12-0.12-0.28-0.19-0.46l-0.14-0.37c-0.31,0.34-0.71,0.66-1.2,0.97
			C57.48,25.85,56.87,26,56.15,26z M58.88,20.69H57.4c-0.51,0-0.87,0.11-1.07,0.33s-0.31,0.54-0.31,0.94c0,0.48,0.12,0.8,0.35,0.98
			c0.23,0.18,0.56,0.27,0.99,0.27c0.62,0,1.12-0.15,1.53-0.46V20.69z"/>
		<path class="st3" d="M66.95,12.69c-0.79,0-1.34-0.13-1.68-0.4c-0.33-0.27-0.5-0.72-0.5-1.35s0.17-1.08,0.5-1.35
			c0.33-0.27,0.89-0.4,1.68-0.4c0.79,0,1.34,0.14,1.68,0.4c0.33,0.27,0.5,0.72,0.5,1.35s-0.17,1.08-0.5,1.35
			C68.29,12.55,67.73,12.69,66.95,12.69z M68.89,25.86h-3c-0.57,0-0.86-0.27-0.86-0.81V13.87h3c0.57,0,0.86,0.27,0.86,0.81V25.86z"
			/>
		<path class="st3" d="M75.13,25.86h-3c-0.57,0-0.86-0.27-0.86-0.81V13.87h2.22c0.35,0,0.6,0.06,0.73,0.17
			c0.13,0.12,0.26,0.37,0.38,0.75l0.14,0.42c0.54-0.59,1.07-1,1.58-1.25s1.12-0.37,1.82-0.37c2.19,0,3.28,1.36,3.28,4.07v8.21h-3
			c-0.57,0-0.86-0.27-0.86-0.81v-7c0-0.4-0.08-0.7-0.23-0.89s-0.44-0.29-0.86-0.29c-0.23,0-0.47,0.04-0.72,0.12
			c-0.25,0.08-0.45,0.19-0.62,0.35V25.86z"/>
		<path class="st3" d="M83.47,22.95c0.65,0.05,1.27,0.08,1.87,0.12c0.6,0.03,1.12,0.05,1.57,0.05c0.69,0,1.16-0.06,1.41-0.17
			c0.25-0.12,0.37-0.35,0.37-0.71c0-0.15-0.02-0.28-0.07-0.37s-0.13-0.18-0.25-0.25c-0.12-0.08-0.29-0.15-0.5-0.21
			c-0.21-0.06-0.48-0.13-0.82-0.21c-0.65-0.15-1.2-0.32-1.67-0.5c-0.46-0.18-0.85-0.4-1.16-0.66c-0.31-0.26-0.54-0.6-0.68-1.01
			c-0.15-0.41-0.22-0.93-0.22-1.56c0-0.8,0.11-1.45,0.32-1.95c0.22-0.5,0.52-0.9,0.91-1.19c0.39-0.29,0.86-0.49,1.4-0.6
			c0.54-0.11,1.13-0.16,1.78-0.16c0.91,0,1.64,0.07,2.18,0.2c0.55,0.13,0.95,0.25,1.21,0.36c0.28,0.12,0.47,0.26,0.58,0.4
			c0.11,0.15,0.16,0.38,0.16,0.71v1.55c-1.02-0.06-1.77-0.1-2.25-0.13s-0.85-0.03-1.1-0.03c-0.52,0-0.92,0.04-1.19,0.13
			c-0.27,0.08-0.4,0.29-0.4,0.61c0,0.31,0.13,0.52,0.38,0.65c0.25,0.12,0.65,0.25,1.19,0.37c0.65,0.17,1.21,0.34,1.7,0.51
			c0.49,0.17,0.88,0.39,1.19,0.66c0.31,0.27,0.54,0.61,0.69,1.02c0.15,0.41,0.23,0.93,0.23,1.56c0,0.79-0.11,1.44-0.34,1.96
			c-0.22,0.52-0.54,0.94-0.94,1.25c-0.4,0.31-0.88,0.52-1.43,0.65s-1.16,0.19-1.83,0.19c-0.79,0-1.51-0.06-2.16-0.19
			c-0.66-0.12-1.14-0.25-1.45-0.37c-0.28-0.12-0.47-0.27-0.57-0.45c-0.1-0.18-0.15-0.4-0.15-0.66V22.95z"/>
		<path class="st3" d="M103.05,9.85c0.57,0,0.86,0.27,0.86,0.81v2.38h-5.59v3.05h4.07c0.57,0,0.86,0.27,0.86,0.81v2.38h-4.92v3.4
			h4.97c0.57,0,0.86,0.27,0.86,0.81v2.38h-8.9c-0.57,0-0.85-0.27-0.85-0.81V9.85H103.05z"/>
		<path class="st3" d="M112.78,25.86c-0.26,0-0.45-0.07-0.58-0.2c-0.12-0.13-0.22-0.33-0.3-0.59c-0.15-0.63-0.31-1.23-0.48-1.8
			c-0.17-0.57-0.37-1.13-0.61-1.69c-0.12,0.29-0.24,0.63-0.37,1.02c-0.12,0.39-0.24,0.77-0.36,1.17c-0.12,0.39-0.22,0.77-0.31,1.13
			s-0.16,0.68-0.21,0.96h-3c-0.22,0-0.39-0.05-0.53-0.15c-0.14-0.1-0.21-0.27-0.21-0.52c0-0.14,0.04-0.32,0.11-0.56
			c0.28-0.82,0.65-1.67,1.12-2.57c0.47-0.89,0.99-1.7,1.54-2.4c-0.25-0.35-0.51-0.76-0.79-1.22c-0.28-0.46-0.55-0.95-0.81-1.46
			c-0.26-0.51-0.5-1.03-0.71-1.56s-0.38-1.05-0.51-1.56h3.42c0.51,0,0.83,0.28,0.97,0.83c0.14,0.72,0.28,1.34,0.41,1.86
			c0.13,0.52,0.27,0.97,0.42,1.38c0.18-0.49,0.36-1.09,0.55-1.78c0.19-0.69,0.38-1.46,0.55-2.29h2.94c0.22,0,0.4,0.05,0.54,0.16
			c0.15,0.11,0.22,0.28,0.22,0.51c0,0.12-0.01,0.23-0.03,0.32s-0.08,0.25-0.16,0.49c-0.3,0.82-0.64,1.58-1.02,2.29
			c-0.38,0.71-0.82,1.39-1.33,2.06c0.31,0.38,0.61,0.82,0.91,1.31s0.58,0.99,0.83,1.53c0.26,0.53,0.49,1.08,0.7,1.65
			s0.38,1.13,0.51,1.69H112.78z"/>
	</g>
</g>
<g class="st1">
	<path class="st4" d="M16.69,25.75l5.93-2.47c0.3-0.12,0.4-0.49,0.2-0.75L12.06,8.39c-0.28-0.37-0.67-0.65-1.11-0.81L1.22,4.05
		C0.76,3.88,0.37,4.41,0.66,4.8l15.46,20.79C16.25,25.77,16.49,25.83,16.69,25.75z"/>
	<g class="st2">
		<path class="st0" d="M9.46,19.39L0.57,31c-0.16,0.21-0.17,0.5-0.02,0.72h0c0.16,0.23,0.46,0.33,0.72,0.22l10.3-3.92
			c0.11-0.04,0.2-0.11,0.27-0.21l1.97-2.64c0.08-0.1,0.08-0.24,0-0.35l-4.04-5.43C9.7,19.28,9.54,19.28,9.46,19.39z"/>
	</g>
	<g class="st2">
		<path class="st0" d="M20.13,16.73l2.51-3.37c0.23-0.31,0.12-0.76-0.24-0.93l-5.2-2.35c-0.26-0.12-0.57-0.04-0.74,0.19l-0.53,0.69
			c-0.06,0.08-0.06,0.18,0,0.26L20.13,16.73z"/>
	</g>
</g>
<text transform="matrix(1 0 0 1 27.693 25.6777)" class="st1"><tspan x="0" y="0" class="st5 st6 st7">Chains</tspan><tspan x="63.76" y="0" class="st8 st6 st7">Ex</tspan></text>
<g>
	<path class="st9" d="M35.09,9.53c0.52,0,1.05,0.05,1.56,0.14s0.93,0.22,1.24,0.37c0.28,0.14,0.46,0.3,0.56,0.49
		c0.09,0.19,0.14,0.43,0.14,0.74v1.71c-0.46-0.03-0.92-0.06-1.38-0.08c-0.46-0.02-0.95-0.03-1.49-0.03c-0.53,0-0.95,0.07-1.29,0.22
		c-0.33,0.15-0.59,0.4-0.79,0.76c-0.19,0.36-0.32,0.86-0.39,1.49c-0.07,0.63-0.1,1.44-0.1,2.41c0,1,0.04,1.83,0.12,2.48
		c0.08,0.65,0.21,1.17,0.39,1.55c0.19,0.39,0.43,0.66,0.73,0.81c0.3,0.16,0.67,0.23,1.1,0.23c0.51,0,0.98-0.01,1.4-0.05
		c0.42-0.03,0.77-0.05,1.03-0.05c0.56,0,0.83,0.28,0.83,0.83v1.9c-0.52,0.22-1.1,0.39-1.73,0.52c-0.63,0.13-1.41,0.2-2.35,0.2
		c-0.87,0-1.65-0.13-2.34-0.38c-0.69-0.25-1.29-0.7-1.78-1.33c-0.49-0.63-0.87-1.48-1.14-2.55c-0.26-1.07-0.39-2.42-0.39-4.05
		c0-1.58,0.11-2.9,0.34-3.96c0.22-1.07,0.58-1.92,1.07-2.57c0.49-0.65,1.12-1.11,1.89-1.39C33.08,9.67,34.01,9.53,35.09,9.53z"/>
	<path class="st9" d="M47.9,25.89c-0.57,0-0.86-0.27-0.86-0.81v-7.02c0-0.4-0.08-0.7-0.23-0.89c-0.15-0.19-0.44-0.29-0.86-0.29
		c-0.23,0-0.47,0.04-0.72,0.12c-0.25,0.08-0.46,0.19-0.63,0.35v8.55H41.6c-0.57,0-0.86-0.27-0.86-0.81V9.25h3.01
		c0.57,0,0.86,0.27,0.86,0.81v4.89c0.83-0.91,1.83-1.37,2.99-1.37c2.21,0,3.31,1.36,3.31,4.08v8.22H47.9z"/>
	<path class="st9" d="M56.4,26.03c-1.11,0-1.97-0.33-2.56-1s-0.89-1.61-0.89-2.83c0-0.83,0.13-1.5,0.41-2
		c0.27-0.5,0.63-0.88,1.08-1.14c0.45-0.25,0.96-0.42,1.53-0.5c0.57-0.08,1.17-0.12,1.78-0.12h1.41v-0.69c0-0.49-0.17-0.8-0.51-0.92
		s-0.87-0.17-1.58-0.17c-0.63,0-1.2,0.02-1.7,0.05c-0.5,0.03-0.82,0.05-0.96,0.05c-0.29,0-0.5-0.08-0.63-0.23
		C53.66,16.37,53.6,16.2,53.6,16v-1.62c0.43-0.19,1.01-0.36,1.74-0.53c0.73-0.17,1.56-0.25,2.5-0.25c1.81,0,3.1,0.38,3.89,1.13
		c0.79,0.76,1.18,1.84,1.18,3.24v7.92h-2.22c-0.17,0-0.31-0.01-0.43-0.04c-0.12-0.02-0.21-0.07-0.29-0.14
		c-0.08-0.07-0.15-0.17-0.21-0.29c-0.06-0.12-0.12-0.28-0.19-0.46l-0.14-0.37c-0.31,0.34-0.71,0.67-1.2,0.97
		C57.74,25.87,57.13,26.03,56.4,26.03z M59.14,20.7h-1.48c-0.51,0-0.87,0.11-1.08,0.34s-0.31,0.54-0.31,0.94
		c0,0.48,0.12,0.81,0.35,0.98c0.23,0.18,0.56,0.27,1,0.27c0.62,0,1.13-0.15,1.53-0.46V20.7z"/>
	<path class="st9" d="M67.22,12.68c-0.79,0-1.35-0.13-1.68-0.41c-0.33-0.27-0.5-0.72-0.5-1.36s0.17-1.08,0.5-1.36
		c0.33-0.27,0.89-0.41,1.68-0.41c0.79,0,1.35,0.14,1.68,0.41c0.33,0.27,0.5,0.72,0.5,1.36s-0.17,1.09-0.5,1.36
		C68.57,12.55,68.01,12.68,67.22,12.68z M69.17,25.89h-3.01c-0.57,0-0.86-0.27-0.86-0.81V13.86h3.01c0.57,0,0.86,0.27,0.86,0.81
		V25.89z"/>
	<path class="st9" d="M75.42,25.89h-3.01c-0.57,0-0.86-0.27-0.86-0.81V13.86h2.22c0.36,0,0.6,0.06,0.73,0.17
		c0.13,0.12,0.26,0.37,0.38,0.75l0.14,0.42c0.54-0.59,1.07-1,1.59-1.25c0.52-0.25,1.12-0.37,1.82-0.37c2.19,0,3.29,1.36,3.29,4.08
		v8.22h-3.01c-0.57,0-0.86-0.27-0.86-0.81v-7.02c0-0.4-0.08-0.7-0.23-0.89c-0.15-0.19-0.44-0.29-0.86-0.29
		c-0.23,0-0.47,0.04-0.72,0.12c-0.25,0.08-0.46,0.19-0.62,0.35V25.89z"/>
	<path class="st9" d="M83.79,22.97c0.65,0.05,1.27,0.08,1.88,0.12c0.6,0.03,1.13,0.05,1.58,0.05c0.7,0,1.17-0.06,1.41-0.17
		s0.37-0.35,0.37-0.71c0-0.15-0.02-0.28-0.07-0.37c-0.05-0.09-0.13-0.18-0.25-0.25c-0.12-0.08-0.29-0.15-0.5-0.21
		c-0.21-0.06-0.48-0.13-0.82-0.21c-0.65-0.15-1.21-0.32-1.67-0.5c-0.46-0.18-0.85-0.4-1.16-0.66c-0.31-0.26-0.54-0.6-0.68-1.01
		c-0.15-0.41-0.22-0.93-0.22-1.56c0-0.8,0.11-1.46,0.32-1.96c0.22-0.5,0.52-0.9,0.92-1.19c0.39-0.29,0.86-0.49,1.4-0.6
		c0.54-0.11,1.13-0.16,1.78-0.16c0.91,0,1.64,0.07,2.19,0.2c0.55,0.13,0.95,0.25,1.22,0.36c0.28,0.12,0.47,0.26,0.58,0.41
		c0.11,0.15,0.16,0.38,0.16,0.71v1.55c-1.02-0.06-1.77-0.1-2.26-0.13c-0.49-0.02-0.85-0.03-1.1-0.03c-0.53,0-0.92,0.04-1.19,0.13
		c-0.27,0.08-0.41,0.29-0.41,0.61c0,0.31,0.13,0.53,0.38,0.65c0.25,0.12,0.65,0.25,1.19,0.37c0.65,0.17,1.22,0.34,1.7,0.51
		c0.49,0.17,0.88,0.39,1.19,0.66c0.31,0.27,0.54,0.61,0.69,1.02c0.15,0.41,0.23,0.93,0.23,1.56c0,0.79-0.11,1.44-0.34,1.97
		c-0.22,0.53-0.54,0.94-0.94,1.25c-0.4,0.31-0.88,0.53-1.44,0.65c-0.56,0.12-1.17,0.18-1.83,0.18c-0.79,0-1.51-0.06-2.17-0.18
		c-0.66-0.12-1.14-0.25-1.45-0.37c-0.28-0.12-0.47-0.27-0.57-0.45c-0.1-0.18-0.15-0.4-0.15-0.66V22.97z"/>
	<path class="st9" d="M103.41,9.83c0.57,0,0.86,0.27,0.86,0.81v2.39h-5.61v3.06h4.08c0.57,0,0.86,0.27,0.86,0.81v2.39h-4.93v3.41
		h4.98c0.57,0,0.86,0.27,0.86,0.81v2.39h-8.92c-0.57,0-0.86-0.27-0.86-0.81V9.83H103.41z"/>
	<path class="st9" d="M113.16,25.89c-0.26,0-0.46-0.07-0.58-0.2c-0.12-0.13-0.22-0.33-0.3-0.59c-0.15-0.63-0.31-1.24-0.48-1.81
		s-0.37-1.14-0.61-1.69c-0.12,0.29-0.25,0.63-0.37,1.02c-0.12,0.39-0.24,0.78-0.36,1.17c-0.12,0.39-0.22,0.77-0.31,1.13
		c-0.09,0.36-0.16,0.68-0.21,0.96h-3.01c-0.22,0-0.39-0.05-0.53-0.15c-0.14-0.1-0.21-0.27-0.21-0.52c0-0.14,0.04-0.32,0.11-0.56
		c0.28-0.82,0.65-1.68,1.13-2.57c0.47-0.9,0.99-1.7,1.54-2.41c-0.25-0.35-0.51-0.76-0.79-1.23c-0.28-0.46-0.55-0.95-0.81-1.46
		s-0.5-1.03-0.71-1.56c-0.21-0.53-0.38-1.05-0.51-1.56h3.43c0.51,0,0.83,0.28,0.97,0.83c0.14,0.73,0.28,1.35,0.41,1.86
		c0.13,0.52,0.27,0.98,0.42,1.38c0.18-0.49,0.36-1.09,0.56-1.78c0.19-0.69,0.38-1.46,0.56-2.29h2.94c0.22,0,0.4,0.05,0.54,0.16
		c0.15,0.11,0.22,0.28,0.22,0.51c0,0.12-0.01,0.23-0.03,0.32s-0.08,0.25-0.16,0.49c-0.3,0.82-0.65,1.58-1.02,2.29
		c-0.38,0.71-0.82,1.4-1.33,2.06c0.31,0.39,0.61,0.82,0.91,1.31c0.3,0.49,0.58,1,0.83,1.53c0.26,0.53,0.49,1.08,0.7,1.66
		c0.21,0.57,0.38,1.14,0.52,1.69H113.16z"/>
</g>
</svg>
