<?xml version="1.0" encoding="utf-8"?>
<!-- Generator: Adobe Illustrator 28.0.0, SVG Export Plug-In . SVG Version: 6.00 Build 0)  -->
<svg version="1.1" id="Layer_1" xmlns="http://www.w3.org/2000/svg" xmlns:xlink="http://www.w3.org/1999/xlink" x="0px" y="0px"
	 viewBox="0 0 100 100" style="enable-background:new 0 0 100 100;" xml:space="preserve">
<style type="text/css">
	.st0{fill:#01ABE7;}
	.st1{fill:#FFFFFF;}
</style>
<g>
	<path class="st0" d="M62.53,56.73l15.06-6.26c0.75-0.31,1.01-1.25,0.51-1.9L50.77,12.64c-0.72-0.94-1.69-1.66-2.81-2.06L23.22,1.62
		c-1.16-0.42-2.16,0.92-1.42,1.91l39.26,52.8C61.41,56.78,62.01,56.95,62.53,56.73z"/>
	<g>
		<path class="st0" d="M44.16,40.58L21.58,70.06c-0.41,0.54-0.43,1.28-0.05,1.83v0c0.41,0.59,1.17,0.83,1.84,0.57l26.17-9.96
			c0.28-0.11,0.52-0.29,0.69-0.52l5-6.71c0.2-0.26,0.2-0.62,0-0.88l-10.26-13.8C44.77,40.31,44.37,40.31,44.16,40.58z"/>
	</g>
	<g>
		<path class="st0" d="M71.26,33.82l6.38-8.56c0.59-0.8,0.3-1.94-0.61-2.35l-13.22-5.98c-0.66-0.3-1.44-0.1-1.88,0.47l-1.34,1.75
			c-0.15,0.19-0.15,0.46,0,0.65L71.26,33.82z"/>
	</g>
</g>
<g>
	<path class="st1" d="M7.29,76.5c0.6,0,1.19,0.05,1.77,0.15c0.59,0.1,1.06,0.24,1.41,0.41c0.32,0.15,0.53,0.33,0.63,0.53
		c0.1,0.2,0.16,0.48,0.16,0.81v1.88c-0.53-0.03-1.05-0.06-1.56-0.09S8.61,80.17,8,80.17c-0.6,0-1.08,0.08-1.46,0.24
		c-0.38,0.16-0.67,0.44-0.89,0.84c-0.22,0.4-0.37,0.95-0.45,1.64c-0.08,0.7-0.12,1.58-0.12,2.65c0,1.1,0.04,2.01,0.13,2.72
		c0.09,0.71,0.24,1.28,0.45,1.71c0.21,0.42,0.49,0.72,0.83,0.89s0.76,0.25,1.25,0.25c0.58,0,1.11-0.02,1.59-0.05
		c0.48-0.03,0.87-0.05,1.17-0.05c0.63,0,0.95,0.31,0.95,0.92v2.09c-0.6,0.24-1.25,0.43-1.96,0.57c-0.71,0.14-1.6,0.22-2.67,0.22
		c-0.98,0-1.87-0.14-2.65-0.42c-0.79-0.28-1.46-0.77-2.02-1.46c-0.56-0.7-0.99-1.63-1.29-2.8S0.4,87.47,0.4,85.67
		c0-1.73,0.13-3.18,0.38-4.35c0.25-1.17,0.66-2.11,1.21-2.83c0.55-0.71,1.27-1.22,2.14-1.53C5.01,76.66,6.06,76.5,7.29,76.5z"/>
	<path class="st1" d="M21.82,94.48c-0.65,0-0.97-0.3-0.97-0.89v-7.71c0-0.44-0.09-0.77-0.26-0.98c-0.18-0.21-0.5-0.32-0.97-0.32
		c-0.26,0-0.53,0.04-0.81,0.13c-0.28,0.08-0.52,0.21-0.71,0.38v9.39h-3.42c-0.65,0-0.97-0.3-0.97-0.89V76.2h3.42
		c0.65,0,0.97,0.3,0.97,0.89v5.37c0.95-1,2.08-1.5,3.39-1.5c2.51,0,3.76,1.49,3.76,4.48v9.04H21.82z"/>
	<path class="st1" d="M31.47,94.63c-1.26,0-2.23-0.36-2.9-1.09c-0.67-0.73-1.01-1.77-1.01-3.11c0-0.92,0.15-1.65,0.46-2.2
		s0.71-0.97,1.22-1.25c0.51-0.28,1.09-0.46,1.74-0.55c0.65-0.08,1.32-0.13,2.02-0.13h1.6v-0.76c0-0.54-0.19-0.88-0.58-1.01
		c-0.39-0.13-0.98-0.19-1.79-0.19c-0.72,0-1.36,0.02-1.93,0.05c-0.57,0.03-0.93,0.05-1.09,0.05c-0.33,0-0.57-0.08-0.71-0.25
		c-0.14-0.17-0.21-0.36-0.21-0.58v-1.78c0.49-0.2,1.15-0.4,1.97-0.58s1.77-0.28,2.84-0.28c2.05,0,3.52,0.42,4.42,1.25
		c0.89,0.83,1.34,2.02,1.34,3.56v8.71h-2.52c-0.19,0-0.35-0.01-0.49-0.04c-0.13-0.03-0.24-0.08-0.33-0.15
		c-0.09-0.08-0.17-0.18-0.24-0.32c-0.07-0.14-0.14-0.31-0.21-0.51l-0.16-0.41c-0.35,0.37-0.81,0.73-1.37,1.07
		C32.99,94.46,32.29,94.63,31.47,94.63z M34.57,88.77h-1.68c-0.58,0-0.99,0.12-1.22,0.37c-0.24,0.25-0.35,0.59-0.35,1.03
		c0,0.53,0.13,0.89,0.39,1.08s0.64,0.29,1.13,0.29c0.7,0,1.28-0.17,1.73-0.51V88.77z"/>
	<path class="st1" d="M43.75,79.97c-0.89,0-1.53-0.15-1.91-0.45c-0.38-0.3-0.57-0.79-0.57-1.49c0-0.7,0.19-1.19,0.57-1.49
		c0.38-0.3,1.01-0.45,1.91-0.45c0.89,0,1.53,0.15,1.91,0.45c0.38,0.3,0.57,0.79,0.57,1.49c0,0.7-0.19,1.19-0.57,1.49
		C45.27,79.82,44.64,79.97,43.75,79.97z M45.95,94.48h-3.42c-0.65,0-0.97-0.3-0.97-0.89V81.26h3.42c0.65,0,0.97,0.3,0.97,0.89V94.48
		z"/>
	<path class="st1" d="M53.05,94.48h-3.42c-0.65,0-0.97-0.3-0.97-0.89V81.26h2.52c0.4,0,0.68,0.06,0.83,0.19
		c0.15,0.13,0.29,0.4,0.43,0.83l0.16,0.46c0.61-0.64,1.21-1.1,1.8-1.37c0.59-0.27,1.28-0.41,2.06-0.41c2.49,0,3.73,1.49,3.73,4.48
		v9.04h-3.42c-0.65,0-0.97-0.3-0.97-0.89v-7.71c0-0.44-0.09-0.77-0.26-0.98c-0.18-0.21-0.5-0.32-0.97-0.32
		c-0.26,0-0.54,0.04-0.81,0.13c-0.28,0.08-0.52,0.21-0.71,0.38V94.48z"/>
	<path class="st1" d="M62.54,91.27c0.74,0.05,1.45,0.09,2.13,0.13s1.28,0.05,1.79,0.05c0.79,0,1.32-0.06,1.6-0.19
		c0.28-0.13,0.42-0.39,0.42-0.78c0-0.17-0.03-0.31-0.08-0.41c-0.05-0.1-0.15-0.2-0.29-0.28c-0.14-0.08-0.33-0.16-0.57-0.23
		c-0.24-0.07-0.55-0.14-0.93-0.23c-0.74-0.17-1.37-0.35-1.89-0.55c-0.53-0.19-0.96-0.44-1.31-0.73c-0.35-0.29-0.61-0.66-0.78-1.11
		c-0.17-0.45-0.25-1.02-0.25-1.72c0-0.88,0.12-1.6,0.37-2.15c0.25-0.55,0.59-0.99,1.04-1.31c0.45-0.32,0.98-0.54,1.59-0.66
		c0.61-0.12,1.29-0.18,2.02-0.18c1.03,0,1.86,0.07,2.48,0.22c0.62,0.14,1.08,0.28,1.38,0.39c0.32,0.14,0.53,0.29,0.66,0.45
		c0.12,0.16,0.18,0.42,0.18,0.78v1.71c-1.16-0.07-2.01-0.11-2.56-0.14c-0.55-0.03-0.97-0.04-1.25-0.04c-0.6,0-1.05,0.05-1.35,0.14
		c-0.31,0.09-0.46,0.32-0.46,0.67c0,0.34,0.14,0.58,0.43,0.71c0.29,0.14,0.74,0.27,1.35,0.41c0.74,0.19,1.38,0.37,1.93,0.56
		c0.55,0.19,1,0.43,1.35,0.73s0.61,0.67,0.79,1.12c0.18,0.45,0.26,1.02,0.26,1.72c0,0.87-0.13,1.59-0.38,2.16s-0.61,1.04-1.06,1.37
		c-0.46,0.34-1,0.58-1.63,0.71s-1.32,0.2-2.08,0.2c-0.89,0-1.71-0.07-2.46-0.2c-0.75-0.14-1.29-0.27-1.64-0.41
		c-0.32-0.14-0.53-0.3-0.64-0.5c-0.11-0.2-0.17-0.44-0.17-0.73V91.27z"/>
	<path class="st1" d="M84.81,76.83c0.65,0,0.97,0.3,0.97,0.89v2.62h-6.36v3.36h4.63c0.65,0,0.97,0.3,0.97,0.89v2.62h-5.6v3.74h5.65
		c0.65,0,0.97,0.3,0.97,0.89v2.62H75.92c-0.65,0-0.97-0.3-0.97-0.89V76.83H84.81z"/>
	<path class="st1" d="M95.87,94.48c-0.3,0-0.52-0.07-0.66-0.22c-0.14-0.14-0.25-0.36-0.34-0.65c-0.17-0.7-0.35-1.36-0.54-1.99
		c-0.19-0.63-0.42-1.25-0.69-1.86c-0.14,0.32-0.28,0.7-0.42,1.12c-0.14,0.42-0.28,0.85-0.41,1.29c-0.13,0.43-0.25,0.85-0.35,1.25
		c-0.1,0.4-0.18,0.75-0.24,1.06H88.8c-0.25,0-0.45-0.05-0.61-0.17c-0.16-0.11-0.24-0.3-0.24-0.57c0-0.15,0.04-0.36,0.12-0.61
		c0.31-0.9,0.74-1.84,1.28-2.83c0.54-0.98,1.12-1.87,1.75-2.65c-0.28-0.39-0.58-0.84-0.89-1.35c-0.32-0.51-0.62-1.04-0.92-1.6
		c-0.3-0.56-0.57-1.13-0.81-1.72c-0.24-0.58-0.43-1.16-0.58-1.72h3.89c0.58,0,0.95,0.3,1.1,0.92c0.16,0.8,0.32,1.48,0.46,2.05
		c0.14,0.57,0.31,1.07,0.48,1.51c0.2-0.54,0.41-1.2,0.63-1.96s0.43-1.6,0.63-2.52h3.34c0.25,0,0.45,0.06,0.62,0.18
		c0.17,0.12,0.25,0.31,0.25,0.56c0,0.14-0.01,0.25-0.04,0.36c-0.03,0.1-0.09,0.28-0.19,0.54c-0.35,0.9-0.73,1.74-1.16,2.52
		c-0.43,0.78-0.93,1.54-1.51,2.27c0.35,0.42,0.69,0.9,1.03,1.44s0.66,1.09,0.95,1.68c0.29,0.59,0.56,1.19,0.8,1.82
		c0.24,0.63,0.44,1.25,0.58,1.86H95.87z"/>
</g>
</svg>
